<?xml version="1.0" encoding="utf-8"?>
<!-- Generator: Adobe Illustrator 21.0.2, SVG Export Plug-In . SVG Version: 6.00 Build 0)  -->
<svg version="1.1" id="Layer_1" xmlns="http://www.w3.org/2000/svg" xmlns:xlink="http://www.w3.org/1999/xlink" x="0px" y="0px"
	 viewBox="0 0 256 512" style="enable-background:new 0 0 256 512;" xml:space="preserve">
<style type="text/css">
	.st0{fill:#FFFFFF;}
</style>
<path class="st0" d="M128,332.1c-5.3,0-10.3-2.1-14.1-5.8L9.3,220c-3.7-3.7-5.8-8.7-5.8-14c0-5.3,2.1-10.3,5.8-14l6.4-6.4
	c3.8-3.8,8.7-5.8,14-5.8c5.3,0,10.3,2.1,14,5.8l84.2,85.8l84.1-85.6c3.8-3.8,8.8-5.9,14.1-5.9c5.3,0,10.3,2.1,14,5.8l6.4,6.4
	c3.8,3.8,5.8,8.7,5.8,14s-2.1,10.3-5.8,14L142,326.5C138.2,330.1,133.3,332.1,128,332.1z"/>
<path class="st0" d="M119.5,326.9L3.5,209.1c-4.7-4.7-4.7-12.3,0-17l7.1-7.1c4.7-4.7,12.3-4.7,17,0L128,287.3l100.4-102.2
	c4.7-4.7,12.3-4.7,17,0l7.1,7.1c4.7,4.7,4.7,12.3,0,17L136.5,327C131.8,331.6,124.2,331.6,119.5,326.9z"/>
</svg>
