<svg xmlns="http://www.w3.org/2000/svg" xmlns:xlink="http://www.w3.org/1999/xlink" viewBox="0 0 317.46 71.4"><defs><style>.cls-1,.cls-2{fill:none;}.cls-2,.cls-3{clip-path:url(#clip-path);}.cls-4{fill:#fff;}</style><clipPath id="clip-path"><rect class="cls-1" x="0.06" width="317.4" height="71.4"/></clipPath></defs><title>logo</title><g id="Layer_2" data-name="Layer 2"><g id="Layer_1-2" data-name="Layer 1"><g class="cls-3"><g class="cls-3"><path class="cls-4" d="M138.76,54.4c-6.4,4.8-10.9,1.3-5.8-9.3,4-8.5,10-21.3-4.2-21.3-5.7,0-9.4,3-13.2,6.9.8-1.7.5-6.8-4.8-6.9h-1.4c-2.8,0-6.5,1.8-8.7,3a.74.74,0,0,0,.7,1.3c2.1-.9,4.7-1.1,3.5,1.6,0,0-5.2,11.5-7.1,15.2C95,51,75.46,61.3,83.46,45c6-12.2,6.2-12.8,9.2-19.3.8-1.7-.7-2.1-1.6-.8a7.7,7.7,0,0,1-6.4,3.6c-2.4-3.2-6.8-4.7-10.5-4.7-15.6,0-30.5,15-30.5,27.3,0,6.7,4.3,10.3,10,10.3,6.6,0,13.3-3,15.7-5.9.4,3.2,1.9,5.9,6.9,5.9,8.3,0,17.7-8.3,18.9-10.4-1.1,2.2-1.3,2.8-1.6,3.3-2.7,5.6,6.2,10.5,9.2,4.1l8.8-18.4c2.2-4.7,5.9-8.7,10.9-8.7,6.1,0,3.4,6.4,1.4,10.5-.9,1.9-3.6,7.7-3.6,7.7-3.2,6.8.1,12,7.8,12a17.07,17.07,0,0,0,12.3-5.6c.6-1.2-.3-2.5-1.6-1.5m-66.7-9.7c-2.1,4.8-6.8,9-11.8,9-3,0-4.6-2.2-4.6-5.1,0-6.6,6.1-17.4,14.8-17.4,2.7,0,4.2,1.9,4.2,4.5,0,1.9-.4,4.1-2.6,9"/><path class="cls-4" d="M179,0h-11.8C125,0,135.06,29.1,153,29.1c1.8,0,1.8-2.1,0-2.1-7.8,0-13.3-18.9,9.4-18.9h15.2c7.1,0,14.6,3,14.6,10.8,0,16.9-17.7,34.8-33.2,34.8h-3.1l16.9-35.6c2.5-6-6-10.3-9.3-3.9L146,50.7c-1.8,3.8-2.8,6.2-2.8,7.7,0,2.6,3.1,2.9,10.7,2.9h3.7c20,0,46.5-19.5,46.5-41.6C204,9.3,197,0,179,0"/><path class="cls-4" d="M48.76,31.1a30.87,30.87,0,0,0,1.9-4,1.19,1.19,0,0,0-1.1-1.6H32.66l8.2-17.4h19.5a4.11,4.11,0,0,0,3.7-2.3,29.52,29.52,0,0,0,1.7-3.7,1.23,1.23,0,0,0-1-1.9H29.66c-42.2,0-32.1,29-14.2,29,1.8,0,1.8-2.1,0-2.1-7.8,0-13.3-19,9.4-19h4.7S13.06,42.8,6.86,55.6c-3,6.1-2,15.8,3.1,15.8.6,0,.9-.3,1.3-1,4.8-10.1,17.5-36.9,17.5-36.9h16.3a4,4,0,0,0,3.7-2.4"/><path class="cls-4" d="M315.86,10.6a14.09,14.09,0,0,0,1.6-6c0-3.2-2.6-4.4-5.7-4.4h-.7c-2.8,0-6.4,1.8-8.6,3a.74.74,0,0,0,.7,1.3c2.1-.9,4.7-1.1,3.5,1.6,0,0-1,2.4-2.1,4.8V11a7.14,7.14,0,0,1-.8,1.5l-10.9,23.4V36l-.2.3c-4.2,8.8-15,17.4-25.8,17.4a14,14,0,0,1-5.6-1c12.1-6,23.2-14.2,23.2-21.4,0-4.1-2.6-7.5-8.7-7.5-14.2,0-29.5,13.7-29.5,24.7a15.18,15.18,0,0,0,.5,3.8,29.35,29.35,0,0,1-7.3,1.5c-3.8,0-3.6-2.5-2.8-4.8l8.5-18c2.7-5.6-6.1-10.8-9.4-3.8l-9.3,19.3a13.42,13.42,0,0,1-11.4,7.3c-6.3,0-2.5-6.6-.5-10.7l5.5-11.6a5.13,5.13,0,0,0-1.9-7l-.8-.4a5.66,5.66,0,0,0-1.8-.3h-1.2c-2.8,0-6.5,1.8-8.7,3a.74.74,0,0,0,.7,1.3c2.1-.9,4.7-1.1,3.5,1.6l-5.5,11.6c-3.5,7.2-9.1,20.2,5,20.2,6,0,11-3.4,14.9-7.7-.2,4.5,3.2,7.7,10.6,7.7,3.4,0,9.1-1.5,15.4-3.9,3.5,3,8.6,3.9,12.9,3.9,8.5,0,16.4-3.9,22.7-9.9-1.7,5.8,1.6,10.1,8.6,10.1a17.07,17.07,0,0,0,12.3-5.6c1-1.1.1-2.4-1.2-1.4-6.4,4.8-10.9,1.3-5.8-9.3Zm-44.6,20.6c1.8,0,2.6.9,2.6,2.2,0,4.9-7.9,10.4-16.3,14.5-.8-6.7,7.5-16.7,13.7-16.7"/></g></g></g></g></svg>